<?xml version="1.0" encoding="UTF-8" standalone="no"?>
<!DOCTYPE svg PUBLIC "-//W3C//DTD SVG 1.1//EN"
 "http://www.w3.org/Graphics/SVG/1.1/DTD/svg11.dtd">
<!-- Generated by graphviz version 2.50.0 (20211204.2007)
 -->
<!-- Title: strings/longest_substr_without_repeating_chars.cpp Pages: 1 -->
<svg width="249pt" height="95pt"
 viewBox="0.00 0.00 248.50 95.00" xmlns="http://www.w3.org/2000/svg" xmlns:xlink="http://www.w3.org/1999/xlink">
<g id="graph0" class="graph" transform="scale(1 1) rotate(0) translate(4 91)">
<title>strings/longest_substr_without_repeating_chars.cpp</title>
<polygon fill="white" stroke="transparent" points="-4,4 -4,-91 244.5,-91 244.5,4 -4,4"/>
<!-- Node1 -->
<g id="node1" class="node">
<title>Node1</title>
<g id="a_node1"><a xlink:title="Greedy algorithm to find the [length of the longest substring without repeating characters](https://w...">
<polygon fill="#bfbfbf" stroke="black" points="59,-56.5 59,-86.5 205,-86.5 205,-56.5 59,-56.5"/>
<text text-anchor="start" x="67" y="-74.5" font-family="Helvetica,sans-Serif" font-size="10.00">strings/longest_substr</text>
<text text-anchor="middle" x="132" y="-63.5" font-family="Helvetica,sans-Serif" font-size="10.00">_without_repeating_chars.cpp</text>
</a>
</g>
</g>
<!-- Node2 -->
<g id="node2" class="node">
<title>Node2</title>
<g id="a_node2"><a xlink:title=" ">
<polygon fill="white" stroke="#bfbfbf" points="0,-0.5 0,-19.5 56,-19.5 56,-0.5 0,-0.5"/>
<text text-anchor="middle" x="28" y="-7.5" font-family="Helvetica,sans-Serif" font-size="10.00">algorithm</text>
</a>
</g>
</g>
<!-- Node1&#45;&gt;Node2 -->
<g id="edge1" class="edge">
<title>Node1&#45;&gt;Node2</title>
<path fill="none" stroke="midnightblue" d="M107.35,-56.4C90.68,-46.86 68.77,-34.32 52.19,-24.84"/>
<polygon fill="midnightblue" stroke="midnightblue" points="53.55,-21.59 43.13,-19.66 50.07,-27.66 53.55,-21.59"/>
</g>
<!-- Node3 -->
<g id="node3" class="node">
<title>Node3</title>
<g id="a_node3"><a xlink:title=" ">
<polygon fill="white" stroke="#bfbfbf" points="74,-0.5 74,-19.5 128,-19.5 128,-0.5 74,-0.5"/>
<text text-anchor="middle" x="101" y="-7.5" font-family="Helvetica,sans-Serif" font-size="10.00">iostream</text>
</a>
</g>
</g>
<!-- Node1&#45;&gt;Node3 -->
<g id="edge2" class="edge">
<title>Node1&#45;&gt;Node3</title>
<path fill="none" stroke="midnightblue" d="M124.65,-56.4C120.33,-48.11 114.83,-37.55 110.23,-28.71"/>
<polygon fill="midnightblue" stroke="midnightblue" points="113.24,-26.91 105.51,-19.66 107.03,-30.14 113.24,-26.91"/>
</g>
<!-- Node4 -->
<g id="node4" class="node">
<title>Node4</title>
<g id="a_node4"><a xlink:title=" ">
<polygon fill="white" stroke="#bfbfbf" points="146.5,-0.5 146.5,-19.5 181.5,-19.5 181.5,-0.5 146.5,-0.5"/>
<text text-anchor="middle" x="164" y="-7.5" font-family="Helvetica,sans-Serif" font-size="10.00">map</text>
</a>
</g>
</g>
<!-- Node1&#45;&gt;Node4 -->
<g id="edge3" class="edge">
<title>Node1&#45;&gt;Node4</title>
<path fill="none" stroke="midnightblue" d="M139.58,-56.4C144.04,-48.11 149.72,-37.55 154.48,-28.71"/>
<polygon fill="midnightblue" stroke="midnightblue" points="157.69,-30.12 159.34,-19.66 151.52,-26.81 157.69,-30.12"/>
</g>
<!-- Node5 -->
<g id="node5" class="node">
<title>Node5</title>
<g id="a_node5"><a xlink:title=" ">
<polygon fill="white" stroke="#bfbfbf" points="199.5,-0.5 199.5,-19.5 240.5,-19.5 240.5,-0.5 199.5,-0.5"/>
<text text-anchor="middle" x="220" y="-7.5" font-family="Helvetica,sans-Serif" font-size="10.00">string</text>
</a>
</g>
</g>
<!-- Node1&#45;&gt;Node5 -->
<g id="edge4" class="edge">
<title>Node1&#45;&gt;Node5</title>
<path fill="none" stroke="midnightblue" d="M152.85,-56.4C166.7,-47.04 184.81,-34.79 198.74,-25.38"/>
<polygon fill="midnightblue" stroke="midnightblue" points="200.87,-28.16 207.2,-19.66 196.95,-22.36 200.87,-28.16"/>
</g>
</g>
</svg>
