<?xml version="1.0" encoding="UTF-8" standalone="no"?>
<!DOCTYPE svg PUBLIC "-//W3C//DTD SVG 1.1//EN"
 "http://www.w3.org/Graphics/SVG/1.1/DTD/svg11.dtd">
<!-- Generated by graphviz version 2.50.0 (20211204.2007)
 -->
<!-- Title: solver Pages: 1 -->
<svg width="179pt" height="66pt"
 viewBox="0.00 0.00 179.00 66.00" xmlns="http://www.w3.org/2000/svg" xmlns:xlink="http://www.w3.org/1999/xlink">
<g id="graph0" class="graph" transform="scale(1 1) rotate(0) translate(4 62)">
<title>solver</title>
<polygon fill="white" stroke="transparent" points="-4,4 -4,-62 175,-62 175,4 -4,4"/>
<!-- Node1 -->
<g id="node1" class="node">
<title>Node1</title>
<g id="a_node1"><a xlink:title="This function takes a string as input, and returns the length of the longest substring that contains ...">
<polygon fill="#bfbfbf" stroke="black" points="0,-19.5 0,-38.5 43,-38.5 43,-19.5 0,-19.5"/>
<text text-anchor="middle" x="21.5" y="-26.5" font-family="Helvetica,sans-Serif" font-size="10.00">solver</text>
</a>
</g>
</g>
<!-- Node2 -->
<g id="node2" class="node">
<title>Node2</title>
<g id="a_node2"><a xlink:href="../../d7/d35/matrix__exponentiation_8cpp.html#ad8389ed58fd0ec66df248014775ad1fa" target="_top" xlink:title=" ">
<polygon fill="white" stroke="black" points="109,-38.5 109,-57.5 141,-57.5 141,-38.5 109,-38.5"/>
<text text-anchor="middle" x="125" y="-45.5" font-family="Helvetica,sans-Serif" font-size="10.00">ans</text>
</a>
</g>
</g>
<!-- Node1&#45;&gt;Node2 -->
<g id="edge1" class="edge">
<title>Node1&#45;&gt;Node2</title>
<path fill="none" stroke="midnightblue" d="M43.04,-32.84C59.16,-35.86 81.67,-40.08 98.86,-43.29"/>
<polygon fill="midnightblue" stroke="midnightblue" points="98.3,-46.75 108.78,-45.15 99.59,-39.87 98.3,-46.75"/>
</g>
<!-- Node3 -->
<g id="node3" class="node">
<title>Node3</title>
<g id="a_node3"><a target="_blank" xlink:href="http://en.cppreference.com/w/cpp/string/basic_string/size#" xlink:title=" ">
<polygon fill="white" stroke="black" points="79,-0.5 79,-19.5 171,-19.5 171,-0.5 79,-0.5"/>
<text text-anchor="middle" x="125" y="-7.5" font-family="Helvetica,sans-Serif" font-size="10.00">std::string::length</text>
</a>
</g>
</g>
<!-- Node1&#45;&gt;Node3 -->
<g id="edge2" class="edge">
<title>Node1&#45;&gt;Node3</title>
<path fill="none" stroke="midnightblue" d="M43.04,-25.16C50.61,-23.74 59.6,-22.06 68.77,-20.34"/>
<polygon fill="midnightblue" stroke="midnightblue" points="69.57,-23.75 78.76,-18.47 68.28,-16.87 69.57,-23.75"/>
</g>
</g>
</svg>
